# xmcd
#
# Track frame offsets:
#   150
#   11909
#   24367
#   36166
#   48085
#   61892
#   76473
#   88940
#   101725
#   116658
#   130818
#   141830
#   155439
#   169360
#   181521
#   195287
#   206884
#   217663
#   228733
#   242824
#   256269
#   269619
#   283108
#   295190
#   309423
#
# Disc length: 4287 seconds
#
# Revision: 2
# Processed by: cddbd v1.5.1PL0 Copyright (c) Steve Scherf et al.
# Submitted via: Media_Universe 3.0
#
DISCID=6710bd19
DTITLE=Ernest Tubb - Triomphes De La Country Music Vol.5
DYEAR=2002
DGENRE=Country
TTITLE0=Walking The Floor Over You
TTITLE1=You Hit The Nail Right On The Hand
TTITLE2=Two Wrongs Don't Make A Right
TTITLE3=That Wild And Wicked Look In Your Eye
TTITLE4=Answer To Rainbow At Midnight
TTITLE5=Seaman' Blues
TTITLE6=Waiting For A Train
TTITLE7=Have You Ever Been Lonely
TTITLE8=I'm In A Crowd But So Alone
TTITLE9=My Filipino Rose
TTITLE10=My Tennessee Baby
TTITLE11=Driftwood On The River
TTITLE12=Letters Have No Arms
TTITLE13=I'll Take A Back Seat For You
TTITLE14=Give Me A Little Old-Fashioned Love
TTITLE15=G.I.R.L. Spells Trouble
TTITLE16=You Don't Have To Be A Baby To Cry
TTITLE17=I Need Attention Bad
TTITLE18=I'm Free From The Chain-Gang Now
TTITLE19=Don't Stay Too Long
TTITLE20=A Drunkard's Child
TTITLE21=Any Old Time
TTITLE22=If You Want Some Lovin'
TTITLE23=Hey La La
TTITLE24=Rose Of The Mountains
EXTD=YEAR: 2002
EXTT0=
EXTT1=
EXTT2=
EXTT3=
EXTT4=
EXTT5=
EXTT6=
EXTT7=
EXTT8=
EXTT9=
EXTT10=
EXTT11=
EXTT12=
EXTT13=
EXTT14=
EXTT15=
EXTT16=
EXTT17=
EXTT18=
EXTT19=
EXTT20=
EXTT21=
EXTT22=
EXTT23=
EXTT24=
PLAYORDER=
